<svg width="29" height="40" viewBox="0 0 29 40" fill="none" xmlns="http://www.w3.org/2000/svg">
<path d="M21.0668 14.4755C21.0668 10.9963 18.121 8.16599 14.5003 8.16599C10.8796 8.16599 7.93384 10.9963 7.93384 14.4755C7.93384 17.9547 10.8796 20.7851 14.5003 20.7851C18.121 20.7851 21.0668 17.9547 21.0668 14.4755Z" fill="white"/>
<path d="M14.4971 40L17.1585 36.6402C19.9366 33.091 29 20.9983 29 14.3868C29.0006 5.78135 23.1738 0 14.5003 0C5.82682 0 0 5.78135 0 14.3874C0 21.5071 10.6432 35.1188 11.8538 36.6433L14.4971 40ZM5.34297 14.4756C5.34297 9.61808 9.45076 5.66571 14.5003 5.66571C19.5499 5.66571 23.6577 9.61808 23.6577 14.4756C23.6577 19.333 19.5499 23.2854 14.5003 23.2854C9.45076 23.2854 5.34297 19.3337 5.34297 14.4756Z" fill="white"/>
</svg>
