<svg width="35" height="35" viewBox="0 0 35 35" fill="none" xmlns="http://www.w3.org/2000/svg">
<path d="M25.5313 20.8648L25.5182 20.9741C22.3113 19.3758 21.9759 19.1629 21.5617 19.7842C21.2744 20.2144 20.4373 21.19 20.1851 21.4787C19.9298 21.7631 19.6761 21.785 19.243 21.5881C18.8055 21.3693 17.4011 20.91 15.7386 19.4225C14.4436 18.2631 13.5744 16.8413 13.3178 16.4038C12.8905 15.6659 13.7844 15.5609 14.5982 14.0209C14.744 13.7147 14.6696 13.4741 14.5617 13.2568C14.4523 13.038 13.5817 10.8943 13.2171 10.0397C12.8671 9.18809 12.5069 9.29601 12.2371 9.29601C11.3971 9.22309 10.7832 9.23476 10.2421 9.79767C7.88839 12.3847 8.48193 15.0534 10.4959 17.8913C14.4538 23.0712 16.5626 24.0249 20.4184 25.3491C21.4596 25.6801 22.409 25.6334 23.1601 25.5255C23.9971 25.3928 25.7369 24.4741 26.1001 23.446C26.4719 22.4179 26.4719 21.5647 26.3626 21.3679C26.2546 21.171 25.9688 21.0616 25.5313 20.8648Z" fill="white"/>
<path d="M29.925 5.03033C18.7119 -5.80926 0.154583 2.05247 0.147292 17.3443C0.147292 20.4009 0.947917 23.3817 2.47333 26.0139L0 35L9.23854 32.5909C20.7667 38.8178 34.9942 30.5492 35 17.353C35 12.7214 33.1917 8.36256 29.9031 5.08721L29.925 5.03033ZM32.0863 17.3049C32.0775 28.4362 19.8581 35.3879 10.1938 29.7063L9.66875 29.3943L4.2 30.8161L5.66563 25.5006L5.31708 24.9537C-0.697084 15.3799 6.2125 2.86766 17.605 2.86766C21.4754 2.86766 25.1081 4.37701 27.844 7.11134C30.5783 9.82233 32.0863 13.455 32.0863 17.3049Z" fill="white"/>
</svg>
